<svg width="1200" height="900" viewBox="0 0 1200 900" fill="none" xmlns="http://www.w3.org/2000/svg">
  <rect width="1200" height="900" rx="48" fill="#F8F1E7"/>
  <rect x="42" y="42" width="1116" height="816" rx="36" fill="#FFFDF9" stroke="#E7D8C6" stroke-width="4"/>
  <rect x="94" y="108" width="1012" height="420" rx="28" fill="#F6E5D9"/>
  <rect x="124" y="138" width="952" height="360" rx="20" fill="#FCFAF7" stroke="#E6D7C8" stroke-width="4"/>
  <path d="M124 378H1076V478C1076 489.046 1067.05 498 1056 498H144C132.954 498 124 489.046 124 478V378Z" fill="#EAD6C2"/>
  <circle cx="283" cy="220" r="56" fill="#F6D38B"/>
  <path d="M168 392C221.667 340 275.333 326 329 350C382.667 374 436.333 372.333 490 345C543.667 317.667 597.333 319.667 651 351C704.667 382.333 758.333 383 812 353C865.667 323 919.333 322 973 350" stroke="#D9B46B" stroke-width="7" stroke-linecap="round"/>
  <path d="M374 368V280M392 368V250M410 368V230M428 368V248M446 368V276" stroke="#C86B4A" stroke-width="8" stroke-linecap="round"/>
  <path d="M356 378H464" stroke="#183153" stroke-width="10" stroke-linecap="round"/>
  <path d="M644 378V300M662 378V270M680 378V242M698 378V270M716 378V300" stroke="#183153" stroke-width="8" stroke-linecap="round"/>
  <path d="M626 378H734" stroke="#183153" stroke-width="10" stroke-linecap="round"/>
  <path d="M862 378V314M880 378V286M898 378V260M916 378V286M934 378V314" stroke="#C86B4A" stroke-width="8" stroke-linecap="round"/>
  <path d="M844 378H952" stroke="#183153" stroke-width="10" stroke-linecap="round"/>
  <rect x="120" y="570" width="236" height="146" rx="24" fill="#FFFFFF" stroke="#E7D8C6" stroke-width="4"/>
  <rect x="398" y="570" width="236" height="146" rx="24" fill="#FFFFFF" stroke="#E7D8C6" stroke-width="4"/>
  <rect x="676" y="570" width="236" height="146" rx="24" fill="#FFFFFF" stroke="#E7D8C6" stroke-width="4"/>
  <rect x="954" y="570" width="126" height="146" rx="24" fill="#FFF8F1" stroke="#E7D8C6" stroke-width="4"/>
  <rect x="150" y="604" width="176" height="16" rx="8" fill="#183153"/>
  <rect x="150" y="636" width="126" height="12" rx="6" fill="#9A8978"/>
  <rect x="150" y="660" width="144" height="12" rx="6" fill="#9A8978"/>
  <rect x="428" y="604" width="176" height="16" rx="8" fill="#183153"/>
  <rect x="428" y="636" width="140" height="12" rx="6" fill="#9A8978"/>
  <rect x="428" y="660" width="120" height="12" rx="6" fill="#9A8978"/>
  <rect x="706" y="604" width="176" height="16" rx="8" fill="#183153"/>
  <rect x="706" y="636" width="132" height="12" rx="6" fill="#9A8978"/>
  <rect x="706" y="660" width="154" height="12" rx="6" fill="#9A8978"/>
  <circle cx="1017" cy="620" r="30" fill="#D9B46B"/>
  <path d="M1000 620H1034M1017 603V637" stroke="#FFFDF9" stroke-width="6" stroke-linecap="round"/>
  <path d="M120 760C222 726 324 726 426 760C528 794 630 794 732 760C834 726 936 726 1038 760" stroke="#E7D8C6" stroke-width="6" stroke-linecap="round"/>
</svg>
